<svg width="84" height="16" viewBox="0 0 84 16" fill="none" xmlns="http://www.w3.org/2000/svg">
<g clip-path="url(#clip0_58_3162)">
<path d="M30.219 0.387575V7.67499H22.7397V0.387575H24.8057V2.35889H28.1897V0.387575H30.219ZM28.1897 6.00486V4.01631H24.8057V6.00486H28.1897ZM33.1936 11.6022V10.6696H25.1435V9.0149H35.2587V13.1879H27.2618V14.2258H35.5606V15.8932H25.1618V11.5977L33.1936 11.6022ZM30.7357 1.49887H33.1752V0.00292969H35.2596V8.32907H33.1752V6.49836H30.7357V4.75294H33.1752V3.23886H30.7357V1.49887Z" fill="white"/>
<path d="M46.2825 0.387153V7.67457H38.7142V0.387153H40.7977V2.35847H44.2523V0.387153H46.2825ZM51.358 10.8071V12.4264H47.171C47.4913 13.5005 49.2544 14.2045 51.6939 14.3315L51.235 16.0034C48.8662 15.8628 46.9075 15.1234 46.0531 13.9269C45.1802 15.1234 43.1858 15.88 40.7637 16.0034L40.3186 14.3315C42.8113 14.2081 44.5928 13.5041 44.9131 12.4264H40.6545V10.8071H51.358ZM44.2523 5.99899V4.01045H40.7977V6.00444L44.2523 5.99899ZM43.362 8.11182C44.2387 8.48655 45.1842 8.67834 46.1393 8.67518H48.7579V10.2591H46.1219C45.0205 10.2591 43.8962 10.0831 42.8985 9.64315L43.362 8.11182ZM49.0598 -0.00292969H51.1442V8.3232H49.0598V-0.00292969Z" fill="white"/>
<path d="M54.5456 1.12672H61.8642V4.08322C61.8642 7.65662 58.8905 10.7193 54.8301 11.5993L54.0646 9.78488C57.4835 9.08091 59.7275 6.72222 59.7275 4.11679V2.90208H54.5456V1.12672ZM64.7672 0H66.8507V15.12H64.7672V0Z" fill="white"/>
<path d="M79.6367 2.83426V1.95428H71.3764V0.334961H81.722V4.36558H73.4947V5.26278H81.956V6.84764H77.7001V7.95621H84.0037V9.57553H69.2269V7.95621H75.602V6.84764H71.4168V2.83426H79.6367ZM81.8101 13.2542C81.8101 14.1695 81.7385 15.0322 81.4356 15.6655H79.3348C79.6193 15.0304 79.69 14.1523 79.69 13.2542V12.1655H71.2176V10.5326H81.8138L81.8101 13.2542Z" fill="white"/>
<path d="M10.218 1.87256L1.85306 10.1406C2.91864 10.6786 4.55143 10.313 5.61609 9.77776C5.07183 10.831 4.69828 12.4449 5.24896 13.4972L13.6139 5.22914L10.218 1.87256Z" fill="white"/>
<path d="M14.1701 4.67565L14.3463 4.50148C14.6302 4.22078 14.7897 3.84014 14.7897 3.44325C14.7897 3.04636 14.6302 2.66571 14.3463 2.38501L13.0935 1.14671C12.8095 0.866117 12.4244 0.708496 12.0229 0.708496C11.6213 0.708496 11.2362 0.866117 10.9522 1.14671L10.776 1.32089L14.1701 4.67565Z" fill="white"/>
<path d="M2.60199 13.2102C3.00016 12.757 3.33933 12.2563 3.61158 11.7197C3.06945 11.9886 2.56373 12.3239 2.10637 12.7176C2.04777 12.4351 1.94725 12.1628 1.80808 11.9093C1.66617 12.1696 1.5644 12.4494 1.50612 12.7394C1.17342 12.4822 0.804559 12.2744 0.411171 12.1225C0.565427 12.511 0.775969 12.8752 1.0362 13.2039C0.742545 13.2616 0.459205 13.3622 0.195482 13.5023C0.451954 13.6398 0.727502 13.7391 1.01326 13.7972C0.613648 14.2496 0.274353 14.7509 0.00366211 15.2886C0.547234 15.0207 1.05399 14.6854 1.51163 14.2907C1.56981 14.5727 1.67035 14.8445 1.80992 15.0972C1.95321 14.8376 2.05565 14.558 2.11371 14.268C2.44528 14.5266 2.81401 14.7348 3.20774 14.8858C3.05492 14.4973 2.84492 14.1332 2.58455 13.8053C2.87798 13.7479 3.16085 13.6467 3.42343 13.5051C3.16609 13.3667 2.88919 13.2673 2.60199 13.2102Z" fill="white"/>
</g>
<defs>
<clipPath id="clip0_58_3162">
<rect width="84" height="16" fill="white"/>
</clipPath>
</defs>
</svg>
