<svg width="66" height="76" viewBox="0 0 66 76" fill="none" xmlns="http://www.w3.org/2000/svg">
<g filter="url(#filter0_d_71_9493)">
<path d="M36.1648 31.0616C35.6869 25.2039 34.6153 19.5965 32.9463 14.9097C31.2774 19.6069 30.2057 25.2109 29.7279 31.072C27.4948 29.6156 25.0573 28.4918 22.4935 27.7367C23.2769 30.3388 24.4532 32.8091 25.9825 35.0639C22.1383 35.5285 18.3829 36.5432 14.834 38.0761C18.3826 39.6092 22.1382 40.6228 25.9825 41.0849C24.4538 43.3401 23.2776 45.8102 22.4935 48.4121C25.0555 47.6596 27.4909 46.5369 29.7209 45.0803C30.1952 50.9414 31.2669 56.5454 32.9463 61.2391C34.6293 56.5489 35.6975 50.9483 36.1718 45.0907C38.4002 46.5476 40.8362 47.6671 43.3992 48.4121C42.6241 45.811 41.4536 43.3415 39.9278 41.0883C43.7678 40.6318 47.5187 39.6167 51.0587 38.0761C47.5182 36.5361 43.7677 35.52 39.9278 35.0605C41.4536 32.8073 42.6241 30.3378 43.3992 27.7367C40.8341 28.4837 38.3959 29.6043 36.1648 31.0616Z" fill="url(#paint0_radial_71_9493)" fill-opacity="0.96"/>
</g>
<defs>
<filter id="filter0_d_71_9493" x="0.513962" y="0.589645" width="64.8648" height="74.9696" filterUnits="userSpaceOnUse" color-interpolation-filters="sRGB">
<feFlood flood-opacity="0" result="BackgroundImageFix"/>
<feColorMatrix in="SourceAlpha" type="matrix" values="0 0 0 0 0 0 0 0 0 0 0 0 0 0 0 0 0 0 127 0" result="hardAlpha"/>
<feOffset/>
<feGaussianBlur stdDeviation="7.16001"/>
<feColorMatrix type="matrix" values="0 0 0 0 1 0 0 0 0 1 0 0 0 0 1 0 0 0 0.91 0"/>
<feBlend mode="normal" in2="BackgroundImageFix" result="effect1_dropShadow_71_9493"/>
<feBlend mode="normal" in="SourceGraphic" in2="effect1_dropShadow_71_9493" result="shape"/>
</filter>
<radialGradient id="paint0_radial_71_9493" cx="0" cy="0" r="1" gradientUnits="userSpaceOnUse" gradientTransform="translate(32.9464 38.0744) rotate(90) scale(23.1647 18.1124)">
<stop offset="0.28125" stop-color="white"/>
<stop offset="1" stop-color="#FFE9AF"/>
</radialGradient>
</defs>
</svg>
